<?xml version="1.0" encoding="UTF-8"?>
<!DOCTYPE svg PUBLIC "-//W3C//DTD SVG 1.1//EN" "http://www.w3.org/Graphics/SVG/1.1/DTD/svg11.dtd">
<!-- Creator: CorelDRAW 2020 (64-Bit) -->
<svg xmlns="http://www.w3.org/2000/svg" xml:space="preserve" width="4.91999in" height="2.66399in" version="1.1" style="shape-rendering:geometricPrecision; text-rendering:geometricPrecision; image-rendering:optimizeQuality; fill-rule:evenodd; clip-rule:evenodd"
viewBox="0 0 4919.99 2663.99"
 xmlns:xlink="http://www.w3.org/1999/xlink"
 xmlns:xodm="http://www.corel.com/coreldraw/odm/2003">
 <defs>
  <style type="text/css">
   <![CDATA[
    .fil0 {fill:#010101}
    .fil4 {fill:darkgray}
    .fil2 {fill:#DD0008}
    .fil3 {fill:#E0E0E0}
    .fil1 {fill:white}
   ]]>
  </style>
 </defs>
 <g id="Layer_x0020_1">
  <metadata id="CorelCorpID_0Corel-Layer"/>
  <g id="_2041416975696">
   <path class="fil0" d="M1196.87 877.3l-509.19 0c-5.55,0 -6.99,11.52 -8.8,16.14 -2.46,6.3 -4.58,11.96 -6.95,17.98 -4.87,12.35 -9,24.52 -14.07,37.11 -5.02,12.47 -9.44,24.45 -13.98,37.2 -4.26,11.96 -11.1,25.02 -13.94,37.24l-628.61 0 0 892.39c13.3,-7.04 25.81,-14.88 38.96,-22.72 13.32,-7.94 25.57,-15.02 38.72,-22.96 26.26,-15.85 52,-30.58 78.24,-46.43 5.49,-3.31 150,-91.61 157.73,-91.61l400.26 0 0 188.98c24.53,-12.98 48.63,-28.7 72.43,-43.06l182.09 -109.24c5.98,-3.58 11.63,-7.02 18.03,-10.84 4.53,-2.7 14.88,-10.08 20.1,-10.08l175.85 0c-0.24,10.61 1.72,15.39 4.21,25.97 8.11,34.43 11.93,43.84 24.85,76.2l53.68 112.99 63.72 104.26 116.2 151.51c15.16,18.93 57.6,63.44 73.49,76.11l100.48 85.87c31.93,23.83 64.03,47.31 97.22,69.44 38.91,25.94 95.26,59.33 138.48,79.36 50.53,23.41 102.09,44.46 155.57,62.28 16.18,5.39 34.12,11.07 51.34,15.59 53.63,14.06 108.06,28.11 163.48,37.3 129.24,21.42 255.22,23.9 385,5.93 93.18,-12.91 212.51,-42.59 299.1,-74.92 31.46,-11.74 64.23,-24.41 94.24,-39.62l35.45 -17.05c85.96,-42.95 198.41,-119.43 270.46,-183.61 3,-2.68 4.14,-2.92 7.21,-5.91 15.97,-15.55 33.46,-29.54 49.2,-45.29 9.06,-9.06 17.28,-17.13 26.27,-26.22l50.93 -56.68c8.15,-10.43 16.22,-19.26 24.36,-29.45 11.82,-14.81 85.48,-111.46 89.06,-124.85l2.63 0c3.56,15.28 13.31,16.47 13.14,36.73l-0.02 124.69c0,5.09 -2.99,22.31 3.94,22.31l1284.78 0c3.02,0 3.94,-0.91 3.94,-3.94l0 -308.4c0,-3.02 -7.3,-10.63 -9.5,-12.81l-50.48 -54.51c-2.42,-2.89 -2.48,-3.62 -5.28,-6.53l-33.49 -36.06c-18.48,-18.2 -38.11,-43.62 -56.42,-61.69 -2.22,-2.19 -3.85,-3.63 -5.93,-5.88l-16.82 -18.61c-8.43,-10.92 -18.8,-19.35 -27.72,-30.02 -2.42,-2.89 -2.48,-3.62 -5.28,-6.53 -13,-13.5 -45.85,-48.06 -56.59,-61.52l-44.5 -48.68c-10.36,-11.76 -36.91,-37.56 -44.94,-49.55 4.07,-2.73 3.48,-3.11 6.37,-6.75l19.48 -22.52c2.63,-3.1 3.01,-4.04 5.97,-7.15 17.55,-18.43 51.69,-61.21 70.84,-82.7 4.43,-4.97 7.89,-10.25 12.49,-15.07l25.57 -29.55c2.63,-2.96 3.01,-4.14 5.93,-7.2 16.15,-16.96 53.08,-61.79 70.8,-82.74 2.63,-3.1 3.01,-4.04 5.97,-7.15 3.07,-3.23 3.63,-4.71 6.56,-7.87l25.52 -29.59c15.46,-18.28 35.61,-43.89 51.24,-60.3l63.63 -74.17c2.63,-2.96 3.01,-4.13 5.93,-7.2 5.06,-5.31 30.32,-33.41 31.83,-39.04 -133.86,0 -267.72,0 -401.57,0 -66.87,0 -133.96,0.53 -200.8,-0.01 -14,-0.11 -11.3,-1.41 -18.7,6.23l-62.98 63c-6.51,6.5 -19.44,20.93 -25.92,25.26 -6.05,-9.04 -72.26,-73.1 -87.5,-88.35 -6.02,-6.02 -19.84,-3.52 -31.92,-3.52l-354.33 0c-4.55,-19.51 -8.96,-38.45 -13.91,-58.27 -14.02,-56.07 -31.78,-110.46 -53.02,-163.52l-21.76 -50.42c-3.7,-8.96 -7.24,-15.75 -11.07,-24.37l-24.5 -47.68c-21.48,-38.37 -44.24,-75.85 -68.91,-112.19 -24.07,-35.45 -50.06,-69.56 -76.63,-103.16 -11.73,-14.84 -28.24,-35.97 -41.56,-48.99 -4.04,-3.95 -5.04,-5.85 -8.55,-9.83 -6.03,-6.85 -11.21,-10.76 -17.18,-18.25 -11.88,-14.89 -40.56,-40.1 -54.96,-53.96l-34.17 -30.13c-17.58,-15.67 -35.94,-29.59 -54.69,-43.74 -30.98,-23.38 -62.66,-46.23 -94.96,-67.76 -43.87,-29.24 -89.89,-56.04 -137.6,-78.93 -41.81,-20.07 -84.69,-38.9 -128.89,-53.53 -70.85,-23.45 -98.14,-29.62 -169.45,-47.08 -79.95,-19.57 -171.27,-32.8 -257.23,-32.8 -32.99,0 -67.44,-0.43 -99.74,1.31l-45.93 3.94c-95.78,5.89 -279.84,51.42 -368.4,86.98 -8.34,3.35 -14.99,6 -23.43,9.38 -23.19,9.27 -45.3,20.7 -68.25,30.17 -18.62,7.69 -47.06,23.22 -64.61,33.82l-40.52 23.79c-36.25,21.62 -94.73,61.21 -126,86.59 -3.31,2.68 -5.31,4.29 -8.83,6.92 -6.84,5.11 -11.72,9.2 -18.38,14.43 -18.19,14.28 -36.04,28.54 -52.93,44.19l-34.13 31.49c-5.8,5.73 -10.6,10.65 -16.38,16.43 -5.53,5.53 -10.36,10.09 -15.78,15.72 -13.32,13.84 -25.15,29.06 -38.69,42.67 -17.59,17.69 -43.24,51.61 -58.83,72.4 -2.77,3.7 -4.56,6.56 -7.11,9.95 -18.58,24.69 -36.5,50.15 -53.81,76.11 -35.36,53.03 -67.15,109.58 -93.19,167.96 -10.74,24.07 -21.1,45.27 -27.02,71.41 -1.87,8.25 -5.77,18.64 -5.77,27.04z"/>
   <path class="fil1" d="M1951.88 721.41c-9.87,-1.74 -182.36,-71.37 -204.2,-79.96 -25.11,-9.87 -18.21,-12.23 -37.75,2.17l-327.9 241.26 363.86 0.28 34.97 45.39 53.9 -41.37c5.98,-4.9 5.77,-4.14 15.63,-4.05l195.89 0.03 -66.63 170.52 1561.5 -5.9c0.78,-31.35 -29.72,-116.31 -42.28,-146.39 -7.82,-18.74 -5.21,-16.38 -19.35,-27.89l-131.22 -106.32c-9.36,-7.82 -151.77,-124.56 -159.29,-128.4l-169.26 90.98c-7.77,-3.85 -11.96,-10.29 -18.67,-15.62l-135.57 -121.62c-3.26,-3.11 -6.05,-4.69 -9.19,-7.91l-225.75 -202.09c-3.89,-3.71 -4.87,-5 -8.87,-8.16l-54.76 -48.93c-16.44,-16.39 -50.19,-43.31 -63.62,-57.1l-63.64 -57c-6.24,3.07 -27.44,27.41 -38.26,37.76 -2.83,2.71 -4.87,5.25 -7.57,8.19l-122.05 127.3c-5.33,5.8 -9.75,10.59 -15.09,16.44 -4.91,5.38 -10.14,9.63 -15.11,15.04 -5.33,5.81 -9.76,10.59 -15.09,16.44l-274.61 286.92z"/>
   <path class="fil1" d="M3728.95 1976.64c84.2,-2.08 169.77,1.06 252.8,-0.19 8.83,-0.13 9.46,-4.39 13.74,-9.2l32.85 -36.7c3.96,-3.97 7.77,-7.43 11.66,-11.97 14.34,-16.78 28.86,-32.07 43.75,-48.12l65.87 -73.23c8.18,-8.56 14.93,-15.78 22.39,-24.86 3.47,-4.23 7.53,-7.18 10.97,-11.33 3.75,-4.52 7.17,-8.19 11.04,-12.58l22.59 -24.29 51.13 -57.3c8.78,5.02 43.88,48.15 52.7,56.68 24.33,23.49 62.87,70 87.7,96.02 18.94,19.83 76,81.67 86.8,95.61 8.76,11.31 45.13,45.72 52.1,58.02l252.19 0.13c1.72,-1.65 0.64,0.45 1.11,-2.33l-51.07 -55.56c-4.2,-4.82 -8.33,-8.14 -12.63,-13.61l-139.97 -152.68c-9.29,-9.93 -15.37,-17.66 -25.1,-27.39l-95.35 -104.17c-2.33,-3.16 -3.7,-3.9 -6.41,-6.66 -4.51,-4.59 -7.61,-8.96 -12.19,-14.07l-26.07 -27.74c-4.46,-5.04 -7.92,-9.31 -12.27,-13.98l-25.12 -28.24 43.54 -49.2c1.59,-1.58 3.62,-3.27 5.23,-5.28l94.59 -104.89c3,-2.96 2.86,-3.61 5.25,-6.56 13.01,-16.04 45.16,-49 61.13,-67.48l145.09 -162.56c-45.31,2.85 -139.87,0.55 -193.84,0.55l-55.22 -0.12c-6.26,0.22 -3.96,-1.16 -7.49,2.2 -23.99,24.79 -47.67,53.87 -71.27,78.25 -4.83,4.98 -8.48,10.25 -13.33,15.54l-127.11 140.61c-4.57,5.25 -8.98,10.31 -14.29,14.26l-50.12 -54.61c-6.09,-4.43 -38.58,-43.31 -46.25,-50.79 -16.11,-15.72 -25.38,-29.06 -37.4,-41.34 -3.43,-3.51 -6.29,-5.92 -9.88,-9.79 -5.97,-6.43 -12.41,-14.42 -18.44,-20.94l-56.3 -61.81c-11.78,-13.5 -5.96,-11.2 -28.32,-11.24 -75.69,-0.11 -163.39,-1.63 -236.59,0.32 1.56,6.57 16.46,20.07 20.94,25.24l188.91 208.72c3.83,4.33 8.04,7.89 11.72,11.89 7.2,7.83 14.21,16.67 21.6,24.35 5.13,5.33 6.48,8.02 11.08,12.55l99.98 110.82 -24.89 28.44c-5.49,5.09 -7.53,8.2 -12.58,13.65l-167.29 183.12c-9.03,9.76 -16.19,19.01 -25.14,28.67 -4.57,4.93 -7.67,7.49 -12.84,13.4l-165.65 183.77z"/>
   <path class="fil1" d="M1095.3 1624.79c6.87,2.47 380.01,0.98 428.35,0.7 18.56,-0.11 44.26,1.6 61.68,-0.24l103.94 -182.09c2.58,-5.4 5.92,-10.27 8.7,-14.92 4.62,-7.71 25.13,-42.78 24.69,-46.64 -0.58,-5.06 -13.38,-24.76 -16.51,-30.71 -12.57,-23.91 -45.29,-77.62 -51.86,-92.38 -4.64,-10.44 -11.73,-19.52 -17.12,-30.11 -5.04,-9.91 -11.45,-20.35 -17.39,-31.23l-34.45 -60.92 -490.25 0.09 0.23 488.46z"/>
   <path class="fil1" d="M116.98 1711.8c7.8,-1.9 27.27,-15.46 35.85,-20.35l110.09 -63.13c4.93,-7.33 -2.81,-150.76 1.58,-163.59 0.35,-0.14 0.88,-0.64 1.08,-0.3 0.2,0.34 0.81,-0.23 1.1,-0.27 1.43,-0.22 2.06,-0.35 3.62,-0.45 18.65,-1.13 95.81,-0.02 115.54,-0.02l152.31 -0.26c7.82,-0.01 7.16,-0.73 11.26,3.57 3.13,3.29 4.93,5.34 7.74,8.02l31.5 30.16c6.07,8.43 -0.94,100.87 2.55,120.84l147.14 0.39c2.49,-20 0.2,-54.5 0.22,-75.89l0.05 -57.85c-0.08,-9.04 -1.6,-7.59 -6.84,-12.48l-38.31 -39.11c-6.13,-5.7 -13.8,-12.37 -19.63,-18.43 -6.41,-6.67 -15.34,-14.78 -19.57,-20.43l83.4 -114.17 -55.05 -74.92c-11.85,-19 -42.05,-53.98 -54.89,-76.13l-511.46 0.42 0.72 574.37z"/>
   <path class="fil1" d="M2854.35 1427.58l-93.6 -127.29c-5.08,-7.26 -7.39,-11.59 -13.3,-18.2 -4.48,-5.01 -8.9,-12.77 -13.18,-18.3l-39.95 -54.55c-8.77,-12.99 -17.49,-24.09 -26.71,-36.27 -4.58,-6.06 -8.51,-12.41 -13.06,-18.44 -4.99,-6.63 -8.97,-11.44 -12.65,-18.8 -10.13,-1.9 -148.06,-1.22 -166.22,-0.37l0.76 574.19c4.8,-1.26 28.96,-15.93 36.28,-20.37 11.74,-7.12 25.15,-13.45 36.94,-20.75 12.96,-8.02 62.83,-37.59 73.86,-41.83l0.18 -313.49 22.87 30.46c11.8,17.63 34.33,45.2 45.41,62.23l115.13 158.21 94.49 -0.03 79.76 -109.57c4.38,-5.94 6.66,-10.55 11.19,-16.35l73.16 -101.33c2.78,-4.54 3.66,-4.69 6.33,-8.14 2.92,-3.76 8.35,-13.57 11.96,-15.25l0.91 310.64 147.06 -0.22 -0.77 -489.21 -165.75 -0.1c-2.35,5.02 -9.32,12.93 -12.99,18.39 -15.37,22.89 -39.89,54.1 -52.31,73.7l-118.57 164.86c-4.79,6.28 -22.5,33.35 -27.24,36.18z"/>
   <path class="fil1" d="M1819.05 1624.85c9.53,1.37 155.38,0.31 169.16,0.35l253.28 -0.29c8.97,-0.07 33.21,2.11 38.86,-2.71l42.17 -43.16c16.67,-15.56 25.21,-26.11 42.9,-42.39l20.78 -20.71 -419.53 -0.06 0.17 -84.61c76.45,-1.79 154.99,-0.33 231.35,-0.24 40.02,0.05 29.94,5.65 53.74,-18.37 2.94,-2.97 3.85,-4.72 6.73,-7.7 5.43,-5.61 8.95,-8.37 14.27,-14.61l29.22 -28.52c5.46,-6.04 27.02,-26.23 28.62,-30.41l-364.23 0.47 0.01 -87.02c107.37,-2.4 214.48,0.62 320.98,-0.34 7.71,-0.07 7.9,-0.81 11.88,-4.84l51.03 -51.33c8.79,-9.95 48.06,-44.96 50.65,-53.11l-582.6 0.5 0.56 489.11z"/>
   <path class="fil1" d="M3930.15 1412.06l-147.3 -163.77c-3.42,6.74 -1.09,108.96 -1.11,125.98 -29.11,0.9 -288.15,2.4 -297.05,0.19l-0.06 -131.15 292.13 -0.14 -77.25 -86.34c-2.43,-2.52 -3.74,-4.56 -5.96,-7.17 -14.49,-17.03 -12.55,-15.89 -26.85,-15.74 -18.04,0.19 -208.17,-0.88 -218.61,0.73l-107.6 105.43c-4.61,5.15 -3.03,8.91 -3,17.8l0.5 364.83c0.05,27.17 -1.48,59.13 0.26,85.69l146.8 -83.07 -0.02 -141.73 296.13 -0.2 0.75 139.52 147.77 0.38c1.54,-4.89 1.04,-191.88 0.45,-211.23z"/>
   <path class="fil0" d="M1994.39 720.3l177.9 -76.85 -5.94 51.49 110.09 -72.61 47.03 207.41c7.78,-14.02 57.08,-138.45 67.95,-164.74 4.22,-10.21 18.98,-49.83 23.3,-55.04 2.96,2.5 5.29,4.32 8.44,6.95 3.39,2.82 5.33,5.5 8.66,8.35l120.71 108.98c7.93,8.44 33.61,29.24 42.66,38.7 3.13,3.27 5.7,4.84 9.18,7.93l17.14 15.65c3.68,3.87 4.54,4.5 8.24,7.5 3.62,2.93 5.24,5.28 8.67,8.34l42.76 38.61c3.21,2.75 5.98,4.7 8.86,7.41 -1.72,-9.25 -11.01,-29.42 -14.91,-39.4l-47.07 -119.59c-4.74,-12.13 -49.11,-128.89 -55.94,-136.96l-69.05 -70.07c-17.53,-17.91 -51.15,-53 -69.46,-69.61 -19.11,-17.34 15.07,-89.21 12.94,-115.02 -0.56,-6.78 -6.19,-44.51 -8.03,-48.11 -9.85,8.21 -16.61,18.61 -27.87,28.31l-305.03 315.7c-18.12,19.5 -36.94,38.22 -55.15,57.74l-27.89 28.53c-7.23,7.75 -13.3,15.04 -21.42,21.87 -3.46,2.92 -5.01,4.51 -6.79,8.54z"/>
   <path class="fil2" d="M3448.09 1134.64c10.43,-1.61 200.56,-0.54 218.61,-0.73 14.3,-0.15 12.36,-1.29 26.85,15.74 2.23,2.62 3.54,4.65 5.96,7.17l77.25 86.34c6.44,2.67 2.2,2.99 6.09,5.13l147.3 163.77c4.98,1.9 1.67,0.21 7.52,6.64l59.56 65.05c7.12,8.69 37.72,40.93 39.21,44.56 -9.03,8.05 -17.09,18.68 -25.68,27.7 -8.98,9.44 -16.94,18.05 -26,27.82l-89.69 97.99c-18.77,18.59 -39.27,45.72 -57.94,62.78 -3.76,3.44 -3.58,4.39 -6.56,7.9l-155.22 167.59c-2.5,2.61 -3.37,4.76 -5.76,7.36l-44.36 49.28 103.73 -0.08 165.65 -183.77c5.17,-5.91 8.27,-8.47 12.84,-13.4 8.95,-9.66 16.11,-18.91 25.14,-28.67l167.29 -183.12c5.05,-5.44 7.09,-8.56 12.58,-13.65l24.89 -28.44 -99.98 -110.82c-4.59,-4.52 -5.95,-7.21 -11.08,-12.55 -7.39,-7.68 -14.4,-16.52 -21.6,-24.35 -3.68,-4 -7.89,-7.56 -11.72,-11.89l-188.91 -208.72c-4.48,-5.17 -19.38,-18.67 -20.94,-25.24 -6.29,3.59 -147.45,1.44 -167.61,1.62 -18.67,0.16 -163.42,-1.11 -167.42,1z"/>
   <path class="fil2" d="M1325.01 1753.07l-26.64 -0.04c2.91,25.09 64.36,147.7 80.06,174.99 16.25,28.26 31.84,53.9 49,79.58 17.37,25.99 34.95,51.31 53.96,74.67 9.87,12.13 18.41,22.76 28.38,34.58 18.16,21.53 28.81,31.8 45.28,50.54 24.1,27.42 47.26,46.9 72.89,71.45l43.94 37.43c23.37,19.06 47.89,36.57 73.46,55.16 96.02,69.81 232.49,132.95 346.64,166.48 292.05,85.78 588.76,59.89 861.48,-64.75 80.34,-36.72 170.96,-93.39 237.44,-147.1 36.18,-29.22 68.99,-57.63 101.85,-89.77l39.2 -40.82c18.39,-21.72 32.07,-36 52.05,-60.86 37.11,-46.19 72,-95.64 104.83,-152.35 30.39,-52.5 59.44,-111.3 82.86,-173.04 12.51,-32.97 55.83,-164.49 57.13,-200.31l-26 0.07c-33.39,143.84 -62.87,229.82 -137.49,361.6 -27.97,49.39 -94.03,144.84 -137.22,189.52l-37.86 40.9c-5.35,5.72 -9.99,10.44 -15.58,15.92 -57.17,55.92 -103.23,93.81 -171.33,141.02 -154.56,107.14 -354.91,179.93 -552.16,198.41 -182.9,17.13 -375.13,-8.6 -540.4,-73.69 -69.56,-27.39 -106.4,-45.49 -168.67,-80.69 -30.57,-17.28 -84.24,-52.45 -113.04,-74.6 -27.01,-20.78 -60.74,-46.98 -86.07,-70.15 -3.22,-2.95 -4.71,-5.02 -7.94,-7.75 -3.08,-2.61 -5.62,-4.48 -8.54,-7.26l-61.96 -62.67c-22.94,-27.11 -31.35,-34.18 -58.12,-67.88 -65.75,-82.77 -120.74,-174.39 -162.97,-274.02 -4.47,-10.54 -13.51,-37.01 -18.47,-44.55z"/>
   <path class="fil2" d="M1310.78 881.23l27.59 -0.04c6.57,-13.8 11.78,-28.82 18.35,-42.22 23.65,-48.23 35.15,-71.19 63.11,-119.28 37.73,-64.91 81.88,-121.63 128.67,-174.47l74.13 -76.82c6.69,-7.63 53.96,-47.48 65.13,-56.92 22.99,-19.41 62.9,-48.42 88.15,-65.4 198.75,-133.67 466.41,-223.41 767.98,-196.42 206.38,18.48 378.47,83.6 542.11,187.57 58.69,37.29 74.9,54.6 121.69,90.93l48.08 43.76c10.83,10.19 20.31,18.98 30.68,29.72l58.16 63.91c18.36,21.5 37.03,44.39 53.89,68.12 17.05,23.99 32.59,47.09 49.12,72.93 53.94,84.32 102.56,194.35 131.17,293.99 4.49,15.64 8.4,33.06 13.27,48.58l26.22 0.04c-1.06,-12.71 -8.74,-36.43 -12.39,-49.41 -12.47,-44.35 -31.14,-97.81 -48.91,-138.76 -35.49,-81.81 -83.34,-171.02 -135.35,-239.98 -17.68,-23.44 -49.16,-65.67 -68.61,-86.27 -27.21,-28.82 -45.8,-51.83 -77.09,-80.37l-66 -58.65c-70.01,-59.87 -185.19,-131.89 -269.8,-168.53 -60.63,-26.26 -115.46,-46.95 -183.26,-66.11 -65.83,-18.61 -141.11,-31.57 -212.8,-37.74 -307.51,-26.49 -585.52,65.73 -786.89,203.94 -31.6,21.69 -60.11,42.44 -88.79,66.09l-50.64 43.85c-5.66,4.7 -9.99,9.79 -15.5,14.67 -5.85,5.17 -10.7,9.76 -16.31,15.21 -19.39,18.86 -35.31,37.25 -53.74,56.46 -44.69,46.59 -106.07,134.61 -138.8,189.33 -15.35,25.67 -30.21,52.28 -44.11,80.49 -6.96,14.12 -36.48,76.24 -38.49,87.81z"/>
   <path class="fil1" d="M840.54 1711.44c5.1,-0.88 92.52,-52.54 109.8,-62.33l37.79 -21.17 -0.43 -490.54c-5.29,-1.6 -136.63,-1.74 -147.77,-0.37l0.62 574.4z"/>
   <path class="fil0" d="M1243.16 1516.11l245.1 0.41c3.93,-10.09 12.94,-24.33 18.67,-33.91l37.8 -67.22c3.24,-5.78 6.19,-10.68 9.71,-16.46 1.96,-3.2 7.93,-14.26 8.76,-17.71 -5.88,-11.93 -12.71,-22.68 -18.84,-33.85l-57.62 -102.31 -243.37 0.2 -0.22 270.84z"/>
   <path class="fil1" d="M2587.89 1743.44l8.82 5.67c3.61,2.02 6.06,3.07 8.93,5.52 5.79,4.94 7.24,12.36 3.18,20.14 -6.03,11.57 -23.33,14.96 -36.46,21.31 -13.89,6.72 -29.36,8.77 -45.94,11.87 -26.51,4.96 -29.87,9.93 -48.7,-0.54l-86.13 49.55 -0.26 -144.13c-34.72,0 -104.62,-1.31 -135.33,0.35 14.3,11.04 34.56,8.8 52.22,43.61 15.83,31.21 16.39,51.64 -28.24,40.2 -9.65,-2.48 -9.39,-1.09 -18.63,-5.11 -24.69,-10.76 -73.07,-20.9 -76.62,-43.15 -2.5,-15.67 9.12,-26.04 13.41,-35.61l-174.56 0.04c9.01,14.33 58.63,52.31 76.27,64.28 26.82,18.19 60.3,37.28 90.54,51.24 198.88,91.77 437.77,55.41 601.37,-88.76 7.29,-6.43 31.46,-29.01 35.24,-35.93 -33.75,-1.99 -127.04,-0.33 -166.86,-0.33 -7.25,0 -43.92,22.61 -54.26,28.85 -5.64,3.4 -13.46,7 -17.98,10.96z"/>
   <path class="fil0" d="M3782.85 1248.29c-3.89,-2.14 0.35,-2.46 -6.09,-5.13l-292.13 0.14 0.06 131.15c8.9,2.22 267.94,0.72 297.05,-0.19 0.01,-17.02 -2.31,-119.24 1.11,-125.98z"/>
   <path class="fil0" d="M263.26 1352.67l284 0.3c1.78,-1.54 37.4,-51.31 38.11,-53.11 2.7,-6.9 -12.36,-20.13 -16.68,-26.69 -6.2,-9.41 -13.8,-17.52 -20.05,-27.05l-285.44 0.17 0.06 106.38z"/>
   <path class="fil2" d="M4216.61 1724.17l86.57 95.38c4.16,5.28 8.37,7.8 13.03,13.19l24.24 26.94c3.98,4.38 7.93,9.89 12.39,13.89l74.44 81.72c19.96,24.24 14.25,19.45 59.62,19.09 34.73,-0.27 70,-0.2 104.99,-0.08 33.91,0.11 71.46,1.32 104.99,-0.2 17.45,-0.8 35.01,-0.33 52.49,-0.34 14.7,-0 37.86,1.35 51.52,-0.3l-0.54 -2.46c-0.47,2.79 0.61,0.68 -1.11,2.33l-252.19 -0.13c-6.98,-12.3 -43.35,-46.71 -52.1,-58.02 -10.8,-13.95 -67.86,-75.78 -86.8,-95.61 -24.83,-26.01 -63.37,-72.52 -87.7,-96.02 -8.83,-8.52 -43.93,-51.66 -52.7,-56.68l-51.13 57.3z"/>
   <path class="fil3" d="M1600.63 1075.9l61.7 0.31c5.8,-9.76 9.54,-24.81 15.27,-35.75 8.34,9.05 14.39,25.18 23.21,35.55 18.92,1.03 65.11,1.73 81.75,-2.82 21,-5.73 39.31,-25.21 53.39,-31.49 -1.84,9.71 -12.4,26.3 -12.68,34.5l61.26 -0.01c2.15,-2.57 42.65,-101.09 44.12,-107.85l-57.24 -0.17c-4.96,0 -50.97,33.93 -58.87,39.23 -11.41,7.65 -50.81,36.64 -57.94,40.1l-37.56 -59.14c-3.98,-6.5 -8.4,-14.3 -12.7,-20.09l-57.43 -0.09c-5.25,0 -8.98,14.64 -13.03,24.62 -3.8,9.35 -7.6,18.41 -11.33,28.04 -6.49,16.75 -17.56,39.16 -21.92,55.07z"/>
   <path class="fil2" d="M4216.3 1327.61l50.12 54.61c5.31,-3.94 9.72,-9 14.29,-14.26l127.11 -140.61c4.85,-5.29 8.5,-10.56 13.33,-15.54 23.6,-24.38 47.28,-53.46 71.27,-78.25l-86.91 0.08c-17.82,-0.2 -16.94,3.97 -34.72,23.87 -13.33,14.93 -19.96,23.61 -34.99,38.5 -3.2,3.17 -4.03,4.95 -7.24,8.51l-20.22 23.09c-2.97,3.17 -4.62,3.82 -7.47,6.96l-27.76 31.28c-7.06,7.65 -51.73,58.67 -56.81,61.74z"/>
   <path class="fil0" d="M3034.61 750.9c6.66,2.68 90.75,9.81 104.89,10.83 -1.21,16.27 -38.93,113.07 -41.41,130.41l98.63 -26.49c14.85,10.47 53.95,54.5 65.2,59.42 -1.97,-18.05 -31.04,-105.08 -39.04,-123.56 -12.23,-28.22 -14.22,-29.06 -19.41,-60.72 -3.74,-22.85 -9.5,-45.95 -12.96,-68.54 -5.14,0.89 -147.07,72.39 -155.89,78.65z"/>
   <path class="fil0" d="M1487.26 828.27l166.99 -64.22 1.42 27.43c6.25,0.89 17.7,-5.61 24.68,-7.29l-12.48 63.61c4.18,-3.22 5.07,-5.33 8.52,-9.35 9.39,-10.94 53.03,-66.3 58.54,-69.94 11.35,7.05 36.33,28.13 44.58,32.38 -1.57,-7.98 -25.79,-65.81 -32.41,-82.73 -1.78,-4.56 -2.68,-8.83 -5.94,-11.5 -4.93,5.64 -6.88,7.32 -12.34,11.47 3.37,-10.23 12.26,-21.14 9.43,-32.99 -2.31,-9.69 -5.02,-27.94 -9.87,-35.12 -10.22,6.08 -20.98,14.85 -30.72,22.04 -10.57,7.81 -19.68,14.72 -30.12,22.36 -20.57,15.06 -39.72,29.66 -60.27,44.7 -20.56,15.06 -39.69,29.63 -60.27,44.7l-45.3 33.46c-4.76,3.48 -9.96,7.99 -14.43,10.99z"/>
   <path class="fil3" d="M1294.41 1076.18c18.24,0.1 36.49,-0.09 54.72,0.03 13.77,0.09 11.47,0.5 20.8,-6.16 5.89,-4.21 10.59,-8.92 19.76,-9.02 24.09,-0.28 95.74,1.42 112.63,-0.25l-13.09 -27.03 -67.55 -0.27c3.84,-4.02 9,-7.01 13.21,-10.02l28.57 -20c5.51,-3.88 8.7,-8.66 17.49,-8.18 7.57,13.53 34.9,74.4 40.35,80.93l65.18 0c-0.6,-5.19 -37.03,-73.75 -42.52,-84.09 -10.09,-18.99 -11.67,-23.24 -38.63,-23.9 -73.5,-1.81 -50.46,-4.62 -98.94,28.06 -12.94,8.72 -25.22,17.81 -37.71,26.59 -9.71,6.83 -70.86,49.09 -74.27,53.32z"/>
   <path class="fil3" d="M1281.62 1076.19l11.45 -27.78 -167.23 -0.18c0.55,-7.93 15.99,-44.2 19.79,-51.41l168.89 -0.2 11.07 -28.3c-49.7,-0.22 -99.05,-0.15 -148.4,-0.15 -21.56,0 -51.96,-3.87 -69.33,5.09 -23.3,12.01 -21.45,16.77 -32.01,42.85 -3.71,9.17 -6.95,17.19 -10.59,26.13 -4.69,11.52 -7.85,17 0.47,26.56 6.94,7.97 15.23,7.39 28.8,7.39l187.11 -0.01z"/>
   <path class="fil1" d="M4774.07 2121.22c0.79,17.37 6.06,13.76 -35.21,13.91 -8.31,0.03 -16.62,0.02 -24.93,0.01l-18.41 -0.04c-6.81,0.68 -2.49,-0.41 -4.58,1.43 -2.78,3.48 -1.54,28.61 -0.9,35.11l73.77 0.53c27.99,-0.43 36.84,3.95 36.81,-40.28 -0.01,-11.57 1.44,-23.83 -2.36,-34.52 -5.84,-16.4 -17.83,-12.22 -42.32,-12.22l-38.53 -0c-1.56,-5.68 -1.58,-11.24 -0.23,-16.94l82.69 -0.23 0.33 -35.37 -87.59 0.26c-7.67,-0.07 -10.33,-0.98 -15.09,3.8 -7.3,7.32 -7.67,16.89 -7.57,28.3 0.09,10.16 -0.86,24.35 0.37,33.96 1.24,9.7 6.37,19.53 13.68,21.43 13.17,3.43 52.87,-1.32 70.09,0.87z"/>
   <path class="fil1" d="M4519.12 2106.61c-5.41,-2.22 -1.85,0.84 -8.89,-8.6l-50.89 -64.85 -35.78 -0.09c0.53,5.3 9.23,22.2 11.69,27.06 6.56,12.94 4.35,18.73 4.36,35.01 0.02,21.25 -2.16,57.72 0.51,77.15l25.41 0.15 0.63 -74.26c5.04,2.3 49.44,63.26 60.11,74.14l19.24 0.04 0.52 -139.74 -26.64 0 -0.26 73.98z"/>
   <path class="fil1" d="M4122.07 2069.78l60.37 0.03c15.32,-0.03 13.29,-0.75 19.23,0.8 0.28,0.07 0.74,0.21 1.08,0.38 1.58,5.05 1.33,14.62 -0.09,20.75 -15.18,1 -72.2,-1.89 -81.11,1.27 -0.4,10 -1.33,75.4 0.95,78.96 1.9,2.26 0.8,1.65 11.36,1.58 3.51,-0.02 10.87,0.82 12.94,-1.16 4.43,-6.76 0.54,-34.11 1.61,-44.56 18.32,-0.98 64.27,2.91 71.26,-3.33 13.83,-12.35 10.87,-44.92 10.08,-66.14 -1.22,-32.71 -19.48,-25.68 -48.63,-25.58 -25.08,0.08 -50.46,0.4 -75.51,-0.03 -0.43,6.24 13.51,32.44 16.46,37.04z"/>
   <path class="fil1" d="M4253.3 2069.55l81.4 0.22 0.27 20.54 -80.84 0.22c-1.7,6.72 -1.48,72.8 -0.47,81.92l25.61 0.2c2.54,-17.76 -5.61,-43.97 4.48,-45.53 1.57,-0.24 3.28,-0.28 4.88,-0.3 13.47,-0.16 56.67,2.76 63.03,-2.91 13.63,-12.15 16.6,-84.39 -1.96,-90.6l-112.85 -0.62c-0.19,5.46 12.78,31.03 16.45,36.85z"/>
   <path class="fil1" d="M3636.5 2070.14l80.94 0.17 0.54 21.88c-13.45,0.72 -27.68,0.15 -40.8,0.18 -6.84,0.02 -36.83,-1.65 -39.59,1.17 -2.2,2.24 -1.47,71.33 -0.78,80.35l25.78 0.05c2.28,-17.6 -4.91,-43.99 4.36,-45.6 1.59,-0.28 3.26,-0.3 4.88,-0.32l27.66 0.13c37.74,0.09 48.1,9.35 45.4,-68.53 -1.13,-32.74 -21.07,-25.76 -49.33,-25.78 -25.19,-0.01 -50.46,0.33 -75.64,-0.02 -0.06,6.09 14.25,33.09 16.58,36.31z"/>
   <path class="fil1" d="M3849.73 2085.43l-54.94 0.52 -0.35 -51.3 -42.55 -0.13c0.98,11.53 16.03,28.85 16.32,42.16 0.36,16.33 -2.44,93.1 1.28,96.74 2.36,2.31 21.22,1.5 24.07,0.47 4.16,-9.94 -1.03,-38.67 1.94,-52.3 9.11,-0.03 18.23,0.02 27.35,-0.03 4.38,-0.02 8.76,-0.04 13.13,-0.09l10.23 0.24c10,2.06 0.9,32.93 4.58,51.86l24.47 -1.05c2.19,-2.13 2.9,-144.97 -0.88,-138.01 -0.16,0.3 -0.71,-0.28 -0.94,-0.32l-22.52 -0.23c-3.15,12.74 0.53,36.82 -1.22,51.47z"/>
   <path class="fil1" d="M2730.19 1802.87c-4.91,1.65 -28.95,16.32 -32.35,18.91 -12.83,9.8 -6.43,23.13 -1.11,37.33 8.48,22.65 11.21,46.46 30.35,47.31 8.35,0.37 11.9,-3.48 18.65,-7.76 24.11,-15.31 59.11,-30.29 42.44,-50.95 -3.59,-4.45 -8.3,-8.41 -12.43,-12.54 -4.7,-4.71 -8.45,-8.47 -13.13,-13.11 -5.69,-5.62 -19.59,-23.49 -32.43,-19.19z"/>
   <path class="fil1" d="M2844.22 1706.91c-6.91,4.54 -20.06,18.56 -25.99,25.33 -11.88,13.54 -1.03,25.77 6.7,36.78 15.75,22.41 30.07,57.34 54.77,29.96 17.85,-19.79 49.91,-44.06 34.48,-60.22 -5.21,-5.46 -23.74,-15.15 -32.21,-20.15 -9.13,-5.39 -26.35,-19.17 -37.75,-11.69z"/>
   <path class="fil1" d="M2258.27 1872.79c-10.57,3.3 -14.54,15.85 -19.78,26.33 -4.45,8.91 -12.47,22.57 -15.72,31.61 -5.29,14.75 2.64,23.99 17.5,27.72 12.83,3.22 25.2,6.33 37.85,9.61 42.17,10.93 33,-20.79 33.71,-55.33 0.4,-19.19 2.04,-27.58 -15.62,-32.65 -8.91,-2.55 -29.21,-10.02 -37.93,-7.3z"/>
   <path class="fil1" d="M2113.79 1811.02c-11.76,6.7 -13.75,12.02 -25.11,25.02 -4.35,4.98 -20.2,21.47 -21.56,29.67 -2.78,16.85 12.7,21.61 22.51,26.88 61.21,32.9 53.81,33.05 74.02,-38.26 5.9,-20.81 0.2,-23.88 -14.29,-31.89 -8.41,-4.65 -24.23,-17.89 -35.57,-11.42z"/>
   <path class="fil1" d="M1996.7 1717.33c-10.2,3.3 -23.41,12.98 -33.6,19.4 -16.2,10.21 -39.15,21.44 -17.18,43.76 4.63,4.7 8.35,8.54 12.98,13.26 43.35,44.2 38.4,36.95 77.48,-23.1 12.26,-18.83 0.48,-25.67 -8.49,-35.39 -6.28,-6.81 -16.13,-22.8 -31.19,-17.93z"/>
   <path class="fil1" d="M2591.27 1867.02c-42.67,12.51 -44.16,0.63 -41.78,52.22 0.56,12.02 -0.35,33.87 7.9,41.04 10.64,9.24 25.49,2.19 37.3,-1.24 59.12,-17.17 56.74,-11.83 23.46,-73.89 -6.06,-11.31 -11.55,-22.63 -26.88,-18.14z"/>
   <path class="fil1" d="M1933.9 2208c1.17,1.25 0.49,0.73 2.35,2 0.41,0.28 2.31,1.37 2.57,1.51l16.65 8.17c12.35,5.76 59.1,25.69 70.8,27.52l39.3 -48.52c7.19,-8.38 -2.32,-19.51 -2.54,-19.67 -6.25,-2.63 -66.82,-7.02 -79.92,-8.27 -16.46,-1.58 -14.44,-3.46 -22.65,6.91l-10.38 11.94c-2.89,3.57 -13.43,13.38 -16.19,18.42z"/>
   <path class="fil1" d="M3110.78 2062.96c11.37,-4.6 59.75,-67.93 64.09,-78.06l-31.34 -45.07c-1.4,-2.04 -6.22,-9.56 -7.92,-10.4 -3.1,-1.52 -14.22,-0.54 -16.33,1.45l-33.55 83.47c-2.85,7.56 3.13,13.13 10.18,24.25 4.89,7.72 11.88,17.16 14.87,24.35z"/>
   <path class="fil1" d="M1533.25 1791.99c3.88,12.95 43.74,68.81 56.01,82.9l65.91 -21.17 3.08 -15.76 -69.65 -55.85c-7.15,-6.05 -6.34,-4.27 -17.03,-1.28 -8.74,2.45 -31.83,7.72 -38.31,11.16z"/>
   <path class="fil1" d="M2521.74 2326.89c16.66,-1.67 36.94,-5.83 51.9,-10l43.52 -12.68c2.29,-1.3 0.93,-0.33 2.58,-1.96l3.17 -67.98 -13.83 -8.46 -72.88 43.41c-6.23,3.83 -9.74,3.04 -10.59,13.09 -1.23,14.65 -2.79,29.58 -3.87,44.58z"/>
   <path class="fil1" d="M3959.99 2173.33l86.01 0.2c2.18,-0.16 0.41,0.08 2.25,-0.26 3.13,-0.59 0.98,0.16 2.71,-0.93 2.76,-4.11 1.94,-28.91 0.48,-35.46l-65.31 -0.21c-0.26,-11.48 1.93,-98.96 -1.38,-102.31 -2.58,-2.61 -13.46,-1.38 -20.15,-1.38 -7.02,-0 -14.48,-0.23 -21.41,-0.01 -0.34,6.48 8.63,21.56 11.13,26.55 7.04,14.09 5.14,16.37 5.17,34.31 0.03,20.15 -2.39,61.94 0.52,79.51z"/>
   <path class="fil3" d="M836.16 996.52l230.34 -0.17 11.06 -28.03c-72.31,-0.35 -147.87,0.83 -219.3,-0.17 -10.57,-0.15 -11.6,-5.3 -22.09,28.38z"/>
   <path class="fil4" d="M1983.47 2148.94l2.26 1.12c2.04,0.7 0.71,0.5 3.36,0.99l22.74 1.79c9.17,0.39 18.97,1.97 28.28,2.67 66.67,4.98 51.57,11.81 69.3,-10.09 4.37,-5.4 9.93,-10.83 11.18,-18.41 -12.87,-3.29 -70.58,-35.81 -82.85,-37.22 -6.58,8.89 -52.02,51.98 -54.27,59.16z"/>
   <path class="fil4" d="M3027.19 1928.48c2.17,7.98 18.45,33.08 24.75,43.74l10.81 18.07c6.13,10.69 2.77,6.43 7.99,8.8 3.86,-13.69 20.8,-54.18 27.48,-72.43 2.41,-6.57 13.7,-30.81 11.39,-36.71 -1.36,-3.47 -17.98,-24.71 -21.67,-28.23 -7.33,2.39 -23.56,25.03 -30.87,32.04l-29.88 34.71z"/>
   <path class="fil1" d="M1607.74 1769.68l86.94 69.18c5.67,3.02 30.52,-8.75 37.96,-11.02 -1.61,-6.86 -17.21,-30.37 -22.41,-38.73l-23.08 -38.49c-8.63,0.65 -74.75,16.35 -79.42,19.06z"/>
   <path class="fil1" d="M2537.49 2168.4l-10.54 80.66c7.39,-1.56 41.68,-23.99 49.62,-28.83 15.09,-9.19 32.14,-18.79 48.71,-29.89l0.6 -38.26 -88.39 16.31z"/>
   <path class="fil1" d="M1803.32 1985.83c3.06,20.47 4.66,20.36 11.29,23.09 22.65,9.34 50.27,23.88 72.55,32.37 3.36,-1.72 13.57,-11.02 16.37,-13.8 5.55,-5.5 11.73,-8.53 15.52,-15.54 -8.63,-4.67 -60.24,-51.24 -67.32,-54.88l-48.41 28.76z"/>
   <path class="fil1" d="M2256.04 2214.88c20.65,14.46 -0.44,15.1 45.52,9.49 17.03,-2.08 37.23,-4 54.11,-7.13l12.87 -40.4 -86.19 -12.83c-4.57,4.47 -24.2,43.05 -26.31,50.87z"/>
   <path class="fil1" d="M2815 2085.71l10.65 56.19c24.47,2.39 15.97,6.91 44.43,-23.15 11.56,-12.21 25.91,-25.03 35.6,-36.73 -0.73,-8.3 -11.63,-28.94 -14.71,-39.41 -8.65,3.19 -68.85,40.8 -75.98,43.1z"/>
   <path class="fil3" d="M886.7 1075.91l60.17 0.29 29.75 -73.06 -59.28 -0.2c-4.95,3.39 -13.43,29.24 -16.36,36.46 -4.52,11.17 -11.25,25.61 -14.28,36.5z"/>
   <path class="fil1" d="M4410.01 2171.76c3.04,-3.24 1.45,-59.13 1.44,-68.74 -0.02,-19.21 2,-52.51 -0.3,-70.01l-42.07 -0.46c-0.49,6.59 10.74,25.93 13.47,31.76 4.74,10.13 2.33,74.04 2.35,89.89 0.02,21.15 -3.06,19.03 15.45,19.04 4.62,0 7.27,0.81 9.66,-1.48z"/>
   <path class="fil1" d="M3930.01 2173.46c1.61,-7.48 1.63,-131.55 0.04,-139.67l-41.36 -0.04c-0.09,6.38 10.22,24.91 13.32,30.82 5,9.54 2.56,73.98 2.65,89.62 0.12,21.43 -6.19,20.74 25.35,19.26z"/>
   <path class="fil1" d="M4093.1 2172.66l0.24 -138.94 -42.14 -0.08c-0.28,7.13 10.2,24.85 13.19,31.15 4.94,10.36 2.42,72.13 2.53,88.1l-0.16 15.9c0.93,5.33 1.91,5.3 26.33,3.88z"/>
   <path class="fil1" d="M4573.51 2067.41c8.44,1.71 87.41,0.68 102.64,0.61l0.31 -35.13 -118.64 0.17c0.81,5.9 11.83,27.79 15.69,34.35z"/>
   <polygon class="fil3" points="1146.33,1034.61 1285.05,1034.7 1296.16,1006.92 1157.19,1006.8 "/>
   <path class="fil1" d="M4574.13 2171.79c2.15,0.43 84.07,1.76 96.54,0.52 2.46,-0.24 0.17,0.15 2.24,-0.34 3.91,-0.93 0.27,0.75 2.68,-1.16 2.65,-4.67 1.51,-28.4 0.56,-35.37l-101.63 -0.26 -0.4 36.61z"/>
   <path class="fil1" d="M3189 1879.94l12.48 -16.72c-12.31,-20.51 -25.27,-13.71 -17.22,-49.66l9.2 -2.48 22.9 22.72 12.15 -15.18c-4.78,-6 -11.07,-10.13 -16.56,-15.46 -4.56,-4.43 -29.42,-28.76 -34.68,-28.91 -14.48,-0.43 -15.3,2.65 -16.74,15.09l-5.65 42.18c-0.51,7.37 0.96,7.69 4.63,12.23 5.28,6.53 25.49,34.05 29.48,36.19z"/>
   <path class="fil1" d="M1722.97 2040.02c2.27,4.37 4.56,5.39 8.02,7.94 5.02,-1.43 21.39,-13.31 26.59,-16.76 15.73,-10.43 11.08,-11.99 28.4,-2.91 18.31,9.6 41,19.13 57.95,30.09 -1.86,3.8 -20.8,18.39 -24.41,21.58 -4.79,4.23 -21.69,16.78 -24.72,22.18l9.7 4.45 51.13 -40.4c6.29,-5.09 11.92,-9.06 17.05,-14.37 -4.94,-4.65 -66.75,-32.86 -78.19,-38.63 -26.68,-13.46 -13.5,-13.98 -54.13,13.87 -6.13,4.2 -12.73,8.36 -17.38,12.95z"/>
   <path class="fil1" d="M1686.11 1895.26c1.65,5.2 8.44,13.43 12.08,16.55 25.08,-3.6 10.75,-18.52 50.98,-1.67l0.02 9.15 -27.69 15.23c1.56,4.93 5.95,11.5 10.8,15.28 5.35,-1.41 40.85,-23.2 50.25,-28.8 6.8,-4.06 7.27,-11.3 6.47,-20.08 -4.07,-2.74 -44.53,-22 -49.37,-23.37 -7.83,-2.2 -45.01,14.52 -53.56,17.71z"/>
   <path class="fil1" d="M2684.47 2217.19l-0.07 13.48 20.13 -5.22c2.79,-27.3 -8.72,-22.26 11.96,-43.77 5.11,-5.31 4.7,-4.7 12.65,-1.91l4.4 31.27c4.95,1.67 14.75,-2.17 18.85,-3.66 -0.97,-14.74 -4.84,-33.29 -7.35,-47.87 -1.39,-8.11 -0.39,-14.13 -7.53,-18.44 -11.41,-6.9 -10.24,-5.26 -17.74,1.91 -8.94,8.55 -18.37,17.41 -27.56,26.24 -8.17,7.86 -7.72,5.26 -7.65,20.41 0.04,9.18 -0.06,18.37 -0.09,27.56z"/>
   <path class="fil1" d="M1890.07 2100.39c2.78,3.78 11.76,10.18 16.78,11.85 19.13,-11.77 14.09,-23.66 47.81,-16.42 5.93,17.64 -12.18,16.38 -19.09,32.13l14.35 10.88c4.64,-2.85 30.77,-33.27 38.22,-41.13 7.52,-7.94 4.17,-8.71 2.87,-22.6 -10.89,-1.76 -54.6,-10.47 -61.81,-6.27 -3.38,1.97 -36.78,28.78 -39.13,31.56z"/>
   <path class="fil1" d="M2967.21 2102.46c5.42,0.2 14.31,-8.43 17.59,-10.46 -1.48,-9.54 -8.24,-17.91 -9.76,-25.91 -1.3,-6.85 5.56,-19.59 7.99,-25.92l9.12 -0.08 15.15 27.83c4.95,-1.6 11.69,-5.61 15.41,-10.84 -1.13,-4.83 -14.98,-27.2 -18.5,-33.03 -7.58,-12.55 -9.7,-21.03 -16.55,-22.89 -3.26,-0.89 -9.06,-1.12 -12.56,-1.23 -4.42,4.31 -24.08,48.11 -24.31,48.8 -2.63,7.79 4.29,20.15 6.84,27.14 3.36,9.2 6.14,16.53 9.6,26.59z"/>
   <path class="fil1" d="M1621.79 1925.33c2.83,7.76 16.65,21.41 22.3,28.37 5.04,6.22 18.81,23.87 23.91,27.67 6.54,-1.28 42.9,-21.43 52.83,-26.07 -1.33,-4.36 -6.54,-11.95 -10.84,-15.38 -10.32,1.82 -19.72,10.48 -30.19,12.64 -3.37,-2.3 -16.7,-16.89 -18.65,-21.96l25.52 -12.14c-1.51,-5.36 -8.41,-14.5 -12.13,-17.88 -8.83,1.64 -41.87,19.56 -52.77,24.76z"/>
   <path class="fil1" d="M2115.82 2201.44l19.75 7.43c12.64,-21.79 14.93,-29.04 41.5,-29.56 8.39,14.18 -0.07,9.46 -10.23,35.25 4.33,3.91 11.38,6.33 18.35,6.76 4.02,-10.61 11.46,-23.83 16.7,-34.35 9.57,-19.24 13.51,-18.32 3.85,-37.61 -8.49,-0.06 -55.86,5.84 -60.13,10.02 -3.79,3.7 -29,40.04 -29.79,42.06z"/>
   <path class="fil1" d="M2078.31 2262.41l68.57 21.01c6.96,-6.46 11.09,-17.84 15.66,-25.74 4.02,-6.95 12.49,-19.67 14.34,-26.06 -3.67,-2.7 -13.31,-6.17 -18.07,-6.25 -6.06,8.51 -10.67,20.17 -17.06,26.62 -6.27,-0.12 -22.98,-4.57 -27.42,-7.24 2,-7.92 13.01,-17.56 13.1,-26.25 -5.52,-2.83 -14.47,-6.65 -19.8,-6.5 -5.41,7.77 -27.63,43.57 -29.32,50.41z"/>
   <path class="fil1" d="M2409.37 2259.23l20.5 1.9c2.63,-6.54 6.34,-19.98 9.51,-25.69 2.73,-4.91 18.57,-11.64 23.89,-12.64 14.07,12.04 -1.91,16.15 -0.51,37.85l18.3 -0.16c2.93,-7.27 6.93,-28.39 8.78,-37.88 3.75,-19.2 8.44,-22.24 -5.57,-35.53 -3.77,0.51 -50.35,18.78 -53,20.49 -4.07,2.61 -21.51,46.14 -21.9,51.65z"/>
   <path class="fil1" d="M2387.59 2326.8l72.2 3.95c3.28,-12.54 15.31,-46.18 15.61,-57.13 -4.81,-2.22 -12.25,-2.63 -18.55,-2.49l-10.15 31.42 -28.63 -0.76c-0.65,-7.86 7.06,-19.84 7.28,-29.5l-21.74 -2.46c-2.41,10.1 -17.18,50 -16.02,56.96z"/>
   <path class="fil1" d="M1837.62 2148.94l59.79 38.9c5.46,-2.74 39.27,-36.08 43.15,-41.52 -2.99,-3.73 -10.84,-9.41 -15.34,-10.83l-23.59 21.04c-5.63,-0.96 -19.93,-11.07 -25.02,-13.93 3.09,-8.28 15.73,-13.82 20.14,-21.22 -2.01,-3.66 -11.84,-10.9 -16.15,-13.17 -5.7,2.33 -16.81,14.59 -22.3,19.74 -5.32,4.98 -18.82,15.01 -20.68,20.99z"/>
   <path class="fil1" d="M3012.33 2079.39l13.37 29.95c-3.55,4.76 -17.6,16.71 -21.74,18.75 -6.37,-6.15 -7.66,-20.09 -14.44,-25.33 -4.81,2.33 -12.65,7.26 -16.37,12.06 0.49,2.52 20.33,48.52 25.56,52.6 4.69,-2.41 52.96,-42.58 55.29,-46.04l-25.96 -52.69c-5.69,1.81 -12.21,7.39 -15.71,10.69z"/>
   <path class="fil1" d="M2734.19 2225.06l1.54 32.82c-7.06,1.94 -22.32,8.7 -27.73,8.62l-2.13 -28.46c-6.47,-0.2 -16.54,2.09 -21.24,5.39l4.19 57.91c4.9,-0.46 63.56,-19.61 69.19,-22.47l-5.2 -58.82c-5,-0.61 -14.43,1.84 -18.61,5.02z"/>
   <path class="fil1" d="M2240.5 2244.05c-3.5,5.15 -25,54.34 -24.44,58.94l10.66 1.74c6.23,-10.41 15.82,-37.81 22.06,-44.67l80.24 -6.17 -20.45 62.67 11 -0.32 29.85 -82.37 -108.91 10.18z"/>
   <path class="fil1" d="M2848.52 2236.08c5.25,-1.27 7.57,-2.63 10.8,-5.77 -0.89,-12.42 -11.39,-38.37 -10.06,-48.56l43.34 -40.48c2.8,-2.45 11.39,-11.44 15.99,-13.52l22.07 60.9c3.88,-2.07 5.28,-3.32 8.4,-6.9l-27.77 -82.52c-5.75,3.61 -64.16,61.42 -74.11,70.61 -7.46,6.89 -4.2,8.65 -1.18,19.72 4.1,15.06 9.56,31.7 12.53,46.51z"/>
   <path class="fil1" d="M1694.81 2074.14c2.43,3.22 68.75,55.12 73.19,57.41 2.24,-2.04 6.71,-7.76 9.38,-10.97 4.76,-5.74 6.7,-4.76 12.58,-9.69l-3.82 -3.96c-2,-1.67 -3.08,-2.39 -5.19,-3.98l-29.15 -22.07c-6.45,-4.92 -12.56,-9.99 -19.28,-14.83 -6.18,-4.45 -14.24,-10.3 -19.62,-15.25 -4.16,2.92 -15.45,18.7 -18.09,23.34z"/>
   <path class="fil1" d="M2300.55 2356.49c2.47,-4.47 2.12,-10.91 3.42,-16.39 1.39,-5.89 4.83,-8.45 5.17,-13.36l-97.31 -9.83c-5,36.31 -7.14,28.96 28.38,32.89 18.63,2.07 42.01,6.22 60.34,6.69z"/>
   <path class="fil1" d="M2856.06 2250c1.34,3.54 12.19,19.87 15.35,23.44l78.57 -48.25c-1.69,-5.06 -5.13,-9.66 -7.26,-13.65 -1.97,-3.69 -1.85,-3.83 -2.71,-7.94 -0.96,-4.56 -0.34,-6.83 -3.27,-6.11l-80.68 52.52z"/>
   <polygon class="fil1" points="4574.35,2120.24 4650.23,2120.04 4650.49,2084.96 4574.69,2084.36 "/>
   <path class="fil1" d="M3230.99 1893.54c-8.2,-4.91 -13.78,-16.69 -21,-20.46 -3.94,2.68 -11.2,12.05 -13.2,17.33l40.32 43.86c3.48,-2.64 39.04,-57.02 41.13,-62.24 -2.13,-4.7 -5.82,-7.59 -9.19,-9.54 -7.13,2.83 -14.81,8.73 -21.86,12.6 -12.56,6.9 -7.54,10.46 -16.2,18.43z"/>
   <path class="fil1" d="M1502.51 1814.3c2.01,5.75 8.18,15.12 11.28,20.37 9.21,15.61 26.95,47.5 35.27,59.1 3.63,-2.32 20.94,-13.12 23.73,-16.48 -8.21,-12.94 -18.02,-25.52 -27.1,-37.79 -3.48,-4.7 -20.28,-37.39 -21.82,-42.85 -5.95,2.63 -16.44,13.05 -21.35,17.65z"/>
   <path class="fil1" d="M1919.79 2244.58c13.41,5.42 27.83,13.45 40.7,19.91 8.31,4.17 36.76,19.06 42.16,19.91l11.7 -26.52c-8.05,-1.96 -15.86,-5.84 -22.99,-8.41 -40.02,-14.44 -44.61,-24.09 -64.3,-31.46l-7.27 26.59z"/>
   <path class="fil1" d="M2523.01 2337.46l8.73 25.72c9.35,0.19 35.4,-5.18 45.8,-7.13 7.42,-1.39 14.72,-2.7 22.11,-3.93 5.97,-0.99 18.57,-2.44 22.91,-5.01l-5.92 -27.59c-35.16,5.86 -37.18,15.37 -93.63,17.94z"/>
   <path class="fil1" d="M3120.19 2071.52c1.1,1.19 0.74,0.89 2.29,2.1l20.59 12.09 60.93 -66.69c-2.13,-4.94 -17.24,-16.45 -21.56,-18.74 -5.33,4.1 -22.66,29.11 -28.81,37.22 -6.12,8.06 -28.21,25.9 -33.43,34.02z"/>
   <path class="fil1" d="M2055.15 1774.48c-32.8,11.12 -15.62,60.58 17.09,49.02 31.61,-11.17 15.75,-60.15 -17.09,-49.02z"/>
   <path class="fil1" d="M2647.36 1848.33c-34.65,10.67 -18.02,59.45 14.15,49.9 32.86,-9.76 17.97,-59.78 -14.15,-49.9z"/>
   <path class="fil1" d="M2495.46 1890.57c-34.31,13.45 -12.39,60.91 18.75,48.21 30.76,-12.55 13.01,-60.66 -18.75,-48.21z"/>
   <path class="fil1" d="M2189.69 1852.51c-34.31,13.45 -12.39,60.92 18.74,48.21 30.76,-12.55 13.02,-60.66 -18.74,-48.21z"/>
   <path class="fil1" d="M2339.3 1891.88c-34.31,13.45 -12.39,60.92 18.74,48.21 30.76,-12.55 13.02,-60.66 -18.74,-48.21z"/>
   <path class="fil1" d="M2781.74 1768.97c-33.17,9.27 -20.44,58.27 13.21,50.3 12.06,-2.86 22.58,-16.24 18.52,-32.22 -2.99,-11.76 -16.28,-22.39 -31.72,-18.07z"/>
   <path class="fil1" d="M2859.52 2203.85l5.66 23.64c4.83,-1.52 52.74,-28 58.51,-32.61 -0.69,-5.02 -4.49,-13.28 -6.37,-18.29 -2.22,-5.9 -4.43,-14.3 -7.85,-18.71 -5.53,3.3 -19.86,18.14 -24.85,22.64 -9.38,8.45 -16.56,16.47 -25.1,23.33z"/>
   <path class="fil1" d="M1736.47 2053.15l50.95 43.38c5.71,-4.05 26.97,-22.17 30.11,-26.76 -4.94,-2.61 -59.15,-30.82 -62.31,-30.15l-16.33 10.86c-0.19,0.17 -0.49,0.44 -0.67,0.61l-1.74 2.06z"/>
   <path class="fil1" d="M1671.7 2097.76c2.02,3.73 33.32,29.78 39.2,34.53 6.85,5.54 13.2,11.26 19.92,16.84 5.76,4.78 15.19,14.37 21.17,17.04 3.52,-2.66 9.03,-10.58 10.78,-15.91 -1.36,-2.3 -74.4,-63.22 -80.33,-65.83 -3.41,2.04 -8.8,8.83 -10.74,13.34z"/>
   <path class="fil1" d="M2242.75 2284.02l-9.67 21.96c12.48,2.29 59.48,11.87 66.7,10.14l12.09 -37.09 -69.12 4.99z"/>
   <path class="fil1" d="M3149.65 2100.39c2.79,3.63 12.8,9.01 17.04,10.05 8.53,-9.79 64.67,-71.78 66.62,-76.98 -3.9,-4.62 -7.81,-8.91 -12.81,-12.58 -5.08,2.83 -43.32,48.61 -53.18,59.14 -5.31,5.68 -13.07,14.34 -17.67,20.37z"/>
   <path class="fil1" d="M3278.1 1965.22c5.31,3.81 16.51,12.17 22.44,12.88l40.17 -57.5c-2.51,-2.96 -20.16,-12.07 -24.42,-13.54 -3.04,2.21 -37.04,52.66 -38.19,58.15z"/>
   <path class="fil1" d="M3184.14 1722l40.3 38.35 17.93 -9.26c0.94,-15.63 1.59,-23.21 0.69,-38.89l-54.19 0.01 -4.73 9.79z"/>
   <path class="fil1" d="M3026.52 2208c2.2,4 11.35,14.28 15.49,18.49 4.81,-0.77 9.3,-5.35 14.4,-9.35 7.94,-6.22 38.64,-28.23 41.49,-32.76 -3.3,-4.63 -14.14,-15.46 -19.14,-19.15 -4.91,2.88 -48.98,38.42 -52.24,42.78z"/>
   <path class="fil1" d="M1794.35 2209.31c10.18,6.72 50.81,37.16 57.36,39.33 3.47,-8.6 10.1,-15.9 12.26,-25.33 -12.52,-5.59 -48.69,-33.85 -56.86,-35.89 -3.22,4.22 -11.96,17.93 -12.76,21.89z"/>
   <path class="fil1" d="M1562.76 1971.78c8.93,13.78 26.58,33.24 36.7,47.52 2.74,3.87 2.65,4.71 7.45,6.84 4.39,-6.36 15.21,-15.34 18.04,-20.87 -3.33,-1.98 -39.77,-46.79 -41.85,-50.95 -4.14,1.6 -18.27,13.35 -20.35,17.46z"/>
   <path class="fil1" d="M2053.3 2331.36l1.87 1.12c7.88,4.04 60.55,21.52 64.01,22.18l5.93 -27.1 -64.35 -20.49c-3,4.62 -6.17,17.46 -7.46,24.3z"/>
   <polygon class="fil1" points="2378.96,2400.48 2448.27,2407.11 2448.22,2379.35 2380.32,2373.97 "/>
   <path class="fil1" d="M2701.37 2348.33c0.18,4.54 5.91,21.19 8.62,24.59l66.07 -19.11c-1.16,-6.74 -7.32,-21.02 -10.95,-25.58l-63.74 20.1z"/>
   <path class="fil0" d="M2550.6 2183.38l-6.96 42.57c9.67,-6.49 23.39,-14.42 33.44,-20.9 11.27,-7.27 24.07,-14.15 34.29,-21.98l0.59 -13.46 -61.35 13.78z"/>
   <path class="fil0" d="M1635.23 1777.48c11.42,6.39 25.31,18.47 36.19,26.83 34.56,26.58 23.26,20.56 40.12,16.74l-34.35 -52.52c-7.97,0.41 -36.77,5.43 -41.96,8.94z"/>
   <path class="fil0" d="M2261.76 1885.32c-13.59,6.54 -8.69,23.9 -2.73,29.54 23.81,22.54 54.98,-7.22 35.65,-22.49 -5.3,-4.19 -25.56,-10.59 -32.92,-7.05z"/>
   <path class="fil0" d="M2117.3 1822.55c-10.1,3.83 -13.19,19.06 -6.23,29 19.6,27.98 56.44,0.54 36.69,-16.98 -5.1,-4.52 -22.07,-15.19 -30.46,-12.01z"/>
   <path class="fil0" d="M2586.48 1879.31c-12.12,2.41 -25.48,3.7 -26.9,15.45 -1.54,12.65 9.92,21.37 20.5,21.63 34.86,0.85 35.31,-42.83 6.41,-37.08z"/>
   <path class="fil0" d="M2728.85 1816.9c-42.68,13.96 -24.84,40.84 -5.72,40.09 11.55,-0.45 23.91,-9.65 25.44,-19.06 2.18,-13.37 -6.93,-25.22 -19.72,-21.03z"/>
   <path class="fil0" d="M1995.99 1729.83c-9.01,3.75 -15.4,16.77 -8.71,28.9 4.1,7.43 14.95,19.04 28.76,13.78 26.43,-10.04 2.16,-31.81 -4.06,-38.42 -3.75,-3.99 -8.51,-7.38 -16,-4.27z"/>
   <path class="fil0" d="M2848.89 1719.33c-6.21,2.25 -20.6,16.09 -22.47,21.12 -4.84,13.01 9.47,23.06 21.21,21.39 9.79,-1.39 20.62,-11.61 22.38,-21.38 2.2,-12.27 -8.52,-25.72 -21.11,-21.14z"/>
  </g>
 </g>
</svg>
